<svg xmlns="http://www.w3.org/2000/svg" viewBox="299 143 496 496" width="496" height="496" role="img" aria-label="FunTurf"><title>FunTurf</title><path fill="#1db954" fill-rule="evenodd" d="M 471.500 233.055 C 457.750 233.439, 443.800 234.295, 440.500 234.956 C 437.200 235.618, 431.125 237.050, 427 238.138 C 422.875 239.226, 416.397 241.229, 412.603 242.590 C 408.810 243.950, 401.233 247.361, 395.764 250.170 C 390.296 252.979, 383.499 256.866, 380.661 258.808 C 377.822 260.751, 373.025 264.315, 370 266.730 C 366.975 269.145, 362.765 272.556, 360.645 274.310 C 358.525 276.065, 353.260 281.466, 348.944 286.314 C 344.628 291.161, 338.982 298.338, 336.397 302.261 C 333.812 306.185, 329.071 314.440, 325.860 320.606 C 322.650 326.773, 318.702 335.796, 317.089 340.659 C 315.475 345.522, 313.107 354.450, 311.827 360.500 C 309.871 369.747, 309.500 374.448, 309.501 390 C 309.502 401.226, 310.015 411.056, 310.807 415 C 311.525 418.575, 312.806 424.425, 313.653 428 C 314.501 431.575, 316.113 436.975, 317.236 440 C 318.358 443.025, 321.116 449.775, 323.364 455 C 325.612 460.225, 329.871 468.469, 332.829 473.319 C 335.787 478.170, 340.820 485.370, 344.014 489.319 C 347.209 493.269, 352.900 499.547, 356.661 503.271 C 360.422 506.995, 368 513.410, 373.500 517.526 C 379 521.642, 388.450 527.472, 394.500 530.482 C 400.550 533.492, 409.325 537.280, 414 538.901 C 418.675 540.521, 425.200 542.533, 428.500 543.371 C 431.800 544.209, 439 545.634, 444.500 546.538 C 453.120 547.955, 467.943 548.252, 551.938 548.691 C 605.528 548.971, 652.687 548.889, 656.735 548.510 C 662.750 547.947, 664.066 547.517, 663.932 546.160 C 663.843 545.247, 663.822 517.163, 663.885 483.750 L 664 423 715.514 423 L 767.028 423 766.764 390.750 L 766.500 358.500 715 358 L 663.500 357.500 663.182 342 C 663.007 333.475, 663.167 320.087, 663.536 312.250 L 664.208 298 724.104 298 L 784 298 784 265.617 L 784 233.233 781.750 232.630 C 780.513 232.299, 715.825 232.101, 638 232.192 C 560.175 232.283, 485.250 232.671, 471.500 233.055 M 452.500 248.715 C 451.400 248.980, 448.925 249.904, 447 250.769 C 445.075 251.633, 441.587 253.868, 439.250 255.737 C 436.913 257.605, 435 259.956, 435 260.960 C 435 261.964, 435.634 263.029, 436.408 263.326 C 437.183 263.624, 439.995 266.584, 442.658 269.904 C 445.321 273.225, 448.547 277.305, 449.826 278.971 L 452.152 282 464.183 282 C 471.677 282, 478.908 282.612, 483.357 283.622 C 487.286 284.514, 493.875 286.134, 498 287.222 C 502.125 288.310, 507.538 290.298, 510.029 291.639 L 514.558 294.077 523.029 290.133 C 527.688 287.964, 534.763 285.227, 538.750 284.052 C 542.737 282.877, 546 281.463, 546 280.910 C 546 280.356, 544.375 277.338, 542.388 274.202 C 540.401 271.066, 537.589 267.461, 536.138 266.192 C 534.687 264.923, 530.350 262.404, 526.500 260.595 C 522.650 258.786, 515.225 255.899, 510 254.179 C 504.775 252.459, 496.504 250.365, 491.619 249.526 C 486.181 248.591, 477.265 248.045, 468.619 248.116 C 460.854 248.180, 453.600 248.449, 452.500 248.715 M 423 254.590 C 417.225 256.532, 408 260.366, 402.500 263.111 C 397 265.856, 389.125 270.450, 385 273.320 C 380.875 276.190, 377.500 279.205, 377.500 280.020 C 377.500 280.834, 378.457 281.637, 379.627 281.803 C 380.959 281.993, 384.262 280.208, 388.469 277.023 C 392.163 274.227, 397.281 270.880, 399.843 269.586 C 402.404 268.291, 410.017 265.529, 416.759 263.446 C 425.846 260.640, 429.955 258.827, 432.637 256.441 C 434.650 254.650, 435.951 252.729, 435.569 252.111 C 435.191 251.500, 434.571 251.013, 434.191 251.030 C 433.811 251.046, 428.775 252.648, 423 254.590 M 547.059 272.715 C 547.091 273.147, 548.106 275.516, 549.313 277.980 C 550.817 281.050, 553.552 283.978, 558.004 287.285 C 561.577 289.938, 567.237 294.810, 570.583 298.110 C 573.928 301.410, 579.276 308.331, 582.468 313.490 C 586.514 320.031, 589.147 323.232, 591.167 324.069 C 592.760 324.729, 594.319 325.014, 594.631 324.703 C 594.942 324.391, 592.160 319.718, 588.449 314.318 C 584.737 308.918, 579.772 302.250, 577.415 299.500 C 575.057 296.750, 570.962 292.203, 568.314 289.395 C 565.666 286.587, 560.675 281.984, 557.223 279.165 C 553.771 276.347, 550.058 273.566, 548.973 272.986 C 547.888 272.405, 547.027 272.283, 547.059 272.715 M 363.501 292.261 C 359.100 296.804, 352.745 304.566, 349.377 309.511 C 346.009 314.455, 341.231 322.550, 338.759 327.500 C 336.287 332.450, 333.106 339.875, 331.690 344 C 330.274 348.125, 328.224 355.550, 327.133 360.500 C 326.042 365.450, 325.003 371.525, 324.825 374 C 324.534 378.022, 324.712 378.467, 326.500 378.193 C 327.600 378.024, 329.569 377.118, 330.875 376.178 C 332.182 375.239, 336.235 368.627, 339.883 361.485 C 343.530 354.343, 349.886 343.642, 354.007 337.705 C 358.128 331.768, 362.453 325.318, 363.619 323.371 C 364.784 321.425, 365.978 317.501, 366.272 314.652 C 366.566 311.804, 367.539 306.955, 368.433 303.878 C 369.328 300.801, 371.638 295.663, 373.567 292.459 C 375.496 289.256, 376.846 286.042, 376.568 285.317 C 376.290 284.593, 375.036 284, 373.782 284 C 372.238 284, 368.919 286.667, 363.501 292.261 M 442.837 291.151 C 438.251 294.534, 431.349 300.497, 427.498 304.401 C 423.646 308.305, 418.763 314.121, 416.645 317.324 L 412.795 323.148 413.491 327.787 C 413.873 330.338, 415.892 337.618, 417.977 343.963 C 420.062 350.308, 422.948 358.650, 424.390 362.500 C 425.832 366.350, 427.976 371.300, 429.155 373.500 C 430.333 375.700, 431.975 378.288, 432.804 379.250 C 433.709 380.301, 435.745 381.009, 437.905 381.023 C 439.882 381.036, 447.125 382.156, 454 383.513 C 460.875 384.869, 470.685 387.164, 475.800 388.614 L 485.099 391.249 488.659 388.716 C 490.617 387.323, 495.827 382.910, 500.235 378.910 C 504.644 374.909, 512.744 366.656, 518.235 360.568 C 523.727 354.481, 528.546 348.637, 528.944 347.581 C 529.343 346.526, 529.058 341.846, 528.311 337.180 C 527.564 332.515, 525.785 325.279, 524.359 321.099 C 522.933 316.920, 520.288 310.272, 518.483 306.326 C 515.966 300.824, 514.302 298.587, 511.350 296.733 C 509.233 295.403, 503.602 293.104, 498.837 291.624 C 494.072 290.144, 484.172 288.051, 476.837 286.971 C 469.502 285.892, 460.726 285.007, 457.337 285.005 L 451.173 285 442.837 291.151 M 367.298 325.750 C 365.865 327.262, 360.682 334.575, 355.780 342 C 350.878 349.425, 345.383 358.650, 343.569 362.500 C 341.755 366.350, 339.475 371.206, 338.502 373.290 C 337.153 376.182, 336.887 378.383, 337.380 382.576 C 337.735 385.598, 339.359 392.818, 340.988 398.620 C 342.617 404.422, 345.845 412.726, 348.162 417.074 C 351.804 423.910, 352.789 425.042, 355.437 425.444 C 357.122 425.700, 362.550 426.618, 367.500 427.484 C 372.450 428.350, 382.181 429.338, 389.123 429.678 L 401.747 430.297 403.018 426.398 C 403.718 424.254, 405.996 418.900, 408.082 414.500 C 410.167 410.100, 414.172 402.675, 416.982 398 C 419.791 393.325, 423.424 387.833, 425.055 385.796 L 428.021 382.092 424.119 372.296 C 421.973 366.908, 418.403 357.100, 416.187 350.500 C 413.970 343.900, 411.229 335.304, 410.095 331.398 L 408.032 324.296 400.365 323.648 C 396.148 323.292, 387.570 323, 381.301 323 L 369.905 323 367.298 325.750 M 589.202 334.729 C 589.157 337.904, 588.621 342.751, 588.011 345.501 C 587.401 348.250, 585.494 353.566, 583.774 357.312 L 580.646 364.125 582.945 371.260 C 584.209 375.184, 586.134 382.019, 587.223 386.448 C 588.714 392.509, 589.269 398.651, 589.470 411.285 C 589.616 420.516, 589.908 428.174, 590.118 428.303 C 590.328 428.431, 592.843 430.666, 595.707 433.268 C 598.571 435.871, 601.352 438, 601.886 438 C 602.421 438, 603.611 435.413, 604.531 432.250 C 605.451 429.087, 607.079 422, 608.149 416.500 C 609.567 409.217, 610.124 401.882, 610.201 389.500 C 610.280 376.846, 609.867 370.455, 608.585 364.500 C 607.638 360.100, 605.249 351.663, 603.277 345.751 C 600.401 337.131, 599.077 334.534, 596.595 332.644 C 594.893 331.348, 592.551 329.988, 591.392 329.622 L 589.284 328.955 589.202 334.729 M 525.843 358.640 C 522.182 362.963, 514.983 370.561, 509.844 375.525 C 504.705 380.488, 497.909 386.788, 494.743 389.525 L 488.985 394.500 490.440 399.893 C 491.240 402.860, 492.607 410.060, 493.477 415.893 C 494.347 421.727, 495.608 431.675, 496.279 438 L 497.500 449.500 506.622 454.024 C 511.639 456.512, 522.032 460.449, 529.717 462.774 C 537.402 465.098, 544.632 467, 545.783 467 C 546.935 467, 551.452 464.306, 555.823 461.013 C 560.193 457.720, 567.175 451.404, 571.338 446.978 C 576.090 441.927, 580.135 436.437, 582.204 432.231 L 585.500 425.531 585.402 411.997 C 585.348 404.554, 584.728 395.997, 584.024 392.982 C 583.320 389.967, 581.655 383.512, 580.322 378.639 C 578.990 373.765, 577.235 368.762, 576.422 367.521 C 575.608 366.279, 571.018 363.456, 566.221 361.246 C 561.425 359.037, 553.975 356.027, 549.667 354.558 C 545.359 353.088, 539.733 351.637, 537.166 351.333 L 532.498 350.780 525.843 358.640 M 353.786 430.936 C 352.859 432.019, 351.403 436.283, 350.550 440.411 C 349.698 444.538, 349 452.678, 349 458.498 C 349 466.941, 349.385 469.830, 350.906 472.790 C 351.954 474.830, 355.952 480.100, 359.791 484.500 C 363.630 488.900, 370.309 495.453, 374.635 499.062 C 378.961 502.670, 385.425 507.428, 389 509.633 C 392.575 511.838, 397.525 514.454, 400 515.446 C 402.710 516.532, 408.080 517.416, 413.500 517.669 C 419.189 517.934, 424.308 517.596, 427.414 516.751 C 431.704 515.583, 432.488 514.953, 433.581 511.796 C 434.270 509.806, 435.353 503.301, 435.988 497.339 C 436.623 491.378, 437.400 483.656, 437.714 480.180 L 438.285 473.859 434.393 470.756 C 432.252 469.049, 426 463.097, 420.500 457.530 C 415 451.963, 408.706 444.728, 406.514 441.454 C 404.321 438.179, 402.071 435.169, 401.514 434.765 C 400.956 434.361, 397.350 434.007, 393.500 433.979 C 389.650 433.951, 380.200 433.090, 372.500 432.067 C 364.800 431.043, 357.819 429.927, 356.986 429.587 C 356.109 429.228, 354.764 429.795, 353.786 430.936 M 485 457.604 C 480.325 459.953, 470.768 464.145, 463.763 466.920 C 456.758 469.694, 449.030 472.467, 446.589 473.082 L 442.152 474.199 441.556 481.850 C 441.229 486.057, 440.265 495.101, 439.415 501.947 L 437.870 514.393 440.185 516.175 C 441.458 517.155, 445.425 519.505, 449 521.397 C 452.575 523.289, 459.325 525.823, 464 527.028 C 470.811 528.783, 474.189 529.108, 481 528.662 C 485.675 528.356, 493.100 527.177, 497.500 526.041 C 501.900 524.905, 509.649 521.895, 514.719 519.351 C 519.789 516.808, 526.529 512.640, 529.696 510.088 C 532.863 507.537, 536.449 503.974, 537.663 502.171 C 538.878 500.369, 540.785 496.105, 541.900 492.697 C 543.016 489.289, 544.057 483.195, 544.214 479.155 L 544.500 471.810 535 469.028 C 529.775 467.498, 522.575 465.233, 519 463.996 C 515.425 462.759, 508.501 459.779, 503.614 457.373 C 498.727 454.968, 494.452 453.075, 494.114 453.166 C 493.776 453.258, 489.675 455.255, 485 457.604 M 549.745 502.075 C 544.345 504.844, 536.893 509.867, 531.827 514.152 C 527.057 518.186, 523.275 521.608, 523.423 521.757 C 523.571 521.905, 526.152 520.938, 529.158 519.609 C 532.164 518.280, 539.995 513.599, 546.561 509.208 C 553.128 504.816, 559.289 500.348, 560.254 499.278 C 561.721 497.652, 561.761 497.333, 560.499 497.333 C 559.669 497.333, 554.829 499.467, 549.745 502.075"/></svg>